{"glyphs":{":":{"x_min":0,"x_max":300,"ha":300,"o":"m 184 93 l 184 84 l 183 78 l 183 74 q 182 70 182 69 q 182 34 161 13 q 149 1 133 1 q 127 0 125 0 l 114 -1 l 102 -1 q 80 -1 80 10 l 80 25 l 81 27 l 82 38 q 83 40 83 42 q 83 63 104 94 q 111 105 129 105 l 137 106 l 141 107 l 153 108 l 161 108 l 173 106 q 184 106 184 93 z m 164 378 q 153 378 153 391 l 153 399 l 153 401 l 153 404 l 155 415 q 155 417 155 419 q 155 447 176 471 q 187 484 207 484 l 209 484 l 210 485 l 226 486 l 232 486 q 257 486 257 472 l 257 461 l 256 460 l 255 447 q 254 445 254 444 q 254 416 234 391 q 224 379 207 379 l 201 378 l 190 376 l 186 376 l 181 376 l 179 376 l 172 376 q 165 378 164 378 z"},"$":{"x_min":0,"x_max":566,"ha":566,"o":"m 410 199 l 410 214 q 410 245 391 268 q 372 291 354 291 q 348 291 348 270 l 348 261 l 347 249 q 346 243 346 225 q 346 207 335 174 q 324 142 323 136 l 306 88 l 304 83 l 300 72 l 300 68 q 300 65 304 65 l 308 65 l 311 65 q 342 65 376 109 q 410 153 410 199 z m 331 606 l 331 608 q 331 612 327 612 l 325 612 l 323 612 l 321 612 q 291 612 260 573 q 230 534 230 503 l 229 501 l 229 498 l 229 486 l 229 483 q 229 454 246 430 q 263 406 282 406 l 283 406 q 289 406 289 431 l 291 453 l 292 464 q 292 481 303 521 q 314 561 323 581 q 331 602 331 606 z m 184 -15 q 184 -3 129 29 q 75 61 75 87 q 75 95 89 110 q 104 125 123 125 q 125 125 166 98 q 206 72 232 72 q 259 72 269 93 q 279 115 295 181 q 312 247 312 276 q 312 304 259 339 q 207 374 185 403 q 164 433 164 473 q 164 514 184 557 q 204 600 235 627 q 267 655 330 664 q 355 667 365 672 q 375 677 391 698 q 406 718 426 718 q 442 718 442 696 q 442 674 487 653 q 532 631 532 604 q 532 594 518 584 q 504 573 482 573 q 477 573 448 590 q 420 607 399 607 q 377 607 366 582 q 325 483 325 422 q 325 400 335 390 q 346 380 366 367 q 427 328 452 294 q 478 261 478 222 q 478 183 460 140 q 413 24 308 14 q 268 10 257 3 q 253 1 238 -30 q 223 -61 203 -61 l 192 -61 q 180 -61 180 -43 q 184 -18 184 -15 z"},"?":{"x_min":0,"x_max":476,"ha":476,"o":"m 137 14 l 137 17 l 137 19 l 137 22 l 139 34 q 139 36 139 38 q 139 53 158 86 q 166 99 184 99 q 190 101 192 101 l 203 103 l 217 103 q 221 101 226 101 q 237 101 237 89 l 237 78 l 233 55 q 233 39 215 12 q 207 0 185 0 l 184 -1 l 182 -1 l 167 -3 l 159 -3 l 146 0 q 137 0 137 14 z m 462 569 l 462 552 q 462 512 438 471 q 413 430 375 386 q 338 342 309 318 q 281 295 276 287 q 271 278 263 235 q 255 192 239 192 l 224 192 q 201 192 201 227 q 201 284 220 316 q 239 348 290 395 q 341 441 365 476 q 389 511 389 553 q 389 595 361 616 q 333 637 298 637 q 262 637 215 606 q 169 574 150 574 q 130 574 130 603 q 130 631 194 665 q 257 698 309 698 l 319 698 q 380 698 421 659 q 462 620 462 569 z"},"<":{"x_min":0,"x_max":587,"ha":587,"o":"m 506 52 l 500 52 q 500 52 500 52 q 490 52 457 74 q 423 97 289 166 q 155 234 113 260 q 86 276 86 302 q 86 327 107 340 q 118 347 188 380 q 260 413 293 431 q 326 448 387 477 q 447 505 490 529 q 533 553 538 553 q 543 553 543 542 q 543 495 508 474 q 495 465 333 389 q 171 312 171 308 q 171 290 320 216 q 470 142 491 124 q 513 106 513 71 q 513 52 506 52 z"},"'":{"x_min":0,"x_max":252,"ha":252,"o":"m 211 712 l 229 712 q 249 712 249 707 l 249 701 q 249 697 199 483 q 193 459 169 459 l 159 459 q 149 459 149 466 l 149 471 l 150 475 l 151 494 q 156 523 156 536 q 157 549 158 559 q 159 568 160 574 q 163 596 163 601 l 167 636 q 167 684 179 702 q 185 712 211 712 z"},"=":{"x_min":0,"x_max":597,"ha":597,"o":"m 557 198 q 557 180 521 180 l 109 180 q 80 180 80 192 l 80 205 q 80 228 85 232 q 91 236 117 236 l 523 236 q 558 236 558 223 l 558 210 q 557 203 557 198 z m 572 413 l 572 400 q 572 377 566 373 q 561 368 519 368 l 145 368 q 93 368 93 380 l 93 393 q 93 416 99 420 q 105 425 141 425 l 525 425 q 572 425 572 413 z"},"a":{"x_min":0,"x_max":500,"ha":500,"o":"m 375 354 q 375 390 360 403 q 345 416 308 416 l 297 416 l 292 415 q 230 415 177 350 q 154 321 138 276 q 123 231 123 192 l 123 170 q 123 119 146 87 q 168 56 206 56 l 216 56 q 242 56 273 76 q 333 115 357 208 q 374 274 374 310 l 375 320 l 375 335 z m 470 430 l 470 422 q 470 417 445 265 q 419 113 419 70 q 419 27 409 10 q 402 0 369 0 q 349 0 342 28 q 334 56 333 56 q 327 56 309 41 q 249 -10 186 -10 q 122 -10 81 34 q 40 79 40 155 l 40 174 q 40 228 60 287 q 78 347 113 388 q 188 476 283 476 l 292 476 q 324 476 354 464 q 385 453 394 453 l 444 469 q 470 469 470 430 z"},"L":{"x_min":0,"x_max":490,"ha":490,"o":"m 321 6 l 233 6 q 126 6 90 16 q 66 22 66 51 q 66 54 95 211 q 124 368 128 393 q 133 417 137 438 l 141 460 l 146 481 l 149 503 l 154 525 q 160 557 168 598 q 176 639 184 685 q 187 702 205 702 l 213 702 q 249 702 249 679 q 249 656 196 395 q 144 134 144 108 q 144 82 188 74 q 232 67 319 67 q 407 67 418 61 q 430 54 430 27 q 430 0 408 0 l 381 1 l 361 3 q 332 6 321 6 z"},"3":{"x_min":0,"x_max":549,"ha":549,"o":"m 378 689 q 507 689 507 575 q 507 520 475 470 q 455 438 411 403 q 366 368 366 366 q 366 364 387 352 q 409 341 412 339 q 474 297 474 206 q 474 168 456 126 q 438 84 402 53 q 367 21 324 7 q 282 -8 244 -8 l 228 -8 q 168 -8 104 28 q 39 63 39 93 q 39 119 63 119 q 76 119 131 85 q 186 51 247 51 q 308 51 356 98 q 404 145 404 201 q 404 292 323 317 q 315 320 290 325 q 266 330 262 332 q 245 339 245 357 q 245 374 252 382 q 260 390 279 397 l 294 402 q 311 407 335 418 q 359 429 383 454 q 430 503 430 558 q 430 626 331 626 q 291 626 239 604 q 187 581 172 581 q 153 581 153 598 q 153 625 256 667 q 310 689 362 689 z"},";":{"x_min":0,"x_max":300,"ha":300,"o":"m 163 114 q 186 114 186 101 l 186 95 q 186 39 136 -46 q 108 -94 73 -123 q 56 -137 43 -137 l 38 -137 q 26 -137 26 -123 q 26 -119 61 -76 q 96 -34 96 -7 q 96 -4 94 4 q 91 13 91 23 q 91 63 106 89 q 121 115 140 115 l 155 115 q 160 114 163 114 z m 157 394 l 157 403 l 158 405 l 159 418 q 160 420 160 421 q 160 450 180 474 q 190 486 208 486 l 215 487 l 226 489 l 240 489 l 251 487 q 261 487 261 478 l 261 460 l 259 448 q 259 425 238 394 q 230 382 210 382 q 206 380 203 380 l 192 379 l 178 379 l 167 381 q 157 381 157 394 z"},"J":{"x_min":0,"x_max":423,"ha":423,"o":"m 407 624 l 407 606 q 407 605 395 537 q 382 468 376 438 q 370 408 361 360 q 327 173 301 114 q 275 54 229 22 q 184 -10 134 -10 q 84 -10 37 13 q -10 36 -10 62 q -10 97 17 97 q 38 97 66 78 q 94 60 129 60 q 165 60 198 93 q 231 126 246 167 q 261 207 290 348 q 319 490 319 561 l 318 614 q 318 664 328 678 q 344 702 383 702 l 391 702 q 407 702 407 624 z"},"V":{"x_min":0,"x_max":586,"ha":586,"o":"m 218 42 q 204 98 170 324 q 137 550 131 574 q 110 668 110 674 q 110 688 132 688 q 177 688 191 629 q 197 609 233 365 q 269 120 280 120 q 282 120 322 198 q 361 275 407 363 q 454 450 496 532 q 538 615 550 637 q 582 690 633 690 q 650 690 650 678 q 650 670 616 616 q 582 562 452 316 q 323 70 309 46 q 284 4 256 4 q 228 4 218 42 z"},"\"":{"x_min":0,"x_max":385,"ha":385,"o":"m 144 542 l 146 563 q 147 575 147 587 l 155 642 q 155 683 166 705 q 171 715 198 715 l 216 715 q 235 715 235 709 l 235 704 q 235 691 212 592 q 189 493 183 477 q 176 461 153 461 l 146 461 q 136 461 136 468 l 136 474 l 137 477 l 138 490 q 140 507 141 515 q 142 526 144 542 z m 292 480 l 306 609 l 312 647 q 312 694 321 705 q 330 715 356 715 l 372 715 q 391 715 391 707 l 391 704 q 391 693 369 595 q 346 497 340 479 q 333 461 310 461 l 302 461 q 292 461 292 468 l 292 471 l 292 474 z"},"7":{"x_min":0,"x_max":544,"ha":544,"o":"m 382 683 q 520 683 541 678 q 562 673 562 658 q 562 623 167 6 q 157 -10 136 -10 q 99 -10 99 6 q 99 31 189 180 q 279 328 372 463 q 464 597 464 601 q 464 621 325 621 q 186 621 167 627 q 148 633 148 661 q 148 689 173 689 l 192 689 l 282 683 z"},"S":{"x_min":0,"x_max":551,"ha":551,"o":"m 37 101 q 37 135 73 135 q 88 135 122 109 q 156 83 185 71 q 214 60 256 60 q 330 60 375 99 q 421 138 421 188 q 421 239 392 267 q 363 295 277 338 q 191 380 160 418 q 129 457 129 517 q 129 555 147 590 q 166 625 198 651 q 262 703 345 703 l 362 703 q 408 703 477 673 q 545 644 545 621 q 545 588 508 588 q 496 588 473 603 q 450 617 437 624 q 398 643 341 643 q 284 643 242 607 q 200 570 200 512 q 200 474 241 440 q 263 423 342 383 q 420 343 449 314 q 493 269 493 203 q 493 112 421 54 q 353 -2 252 -2 q 196 -2 143 20 q 90 42 50 76 q 37 87 37 101 z"},"}":{"x_min":0,"x_max":371,"ha":371,"o":"m 321 293 l 321 283 q 321 264 279 243 q 237 223 222 190 q 208 158 190 48 q 172 -62 149 -95 q 126 -128 98 -144 q 52 -168 15 -168 l 5 -168 q -12 -168 -12 -157 q -12 -136 -1 -125 q 10 -115 21 -111 l 32 -108 q 76 -96 95 -65 q 115 -34 130 64 q 146 162 159 193 q 180 241 226 266 q 243 275 243 281 q 243 286 226 303 q 208 320 200 338 q 191 355 191 386 q 191 417 205 487 q 220 558 220 598 q 220 637 182 656 q 144 675 144 710 q 144 724 161 724 l 171 724 q 221 724 260 681 q 285 654 285 595 q 285 570 270 500 q 254 430 254 397 q 254 345 293 320 q 321 302 321 293 z"},"Z":{"x_min":0,"x_max":565,"ha":565,"o":"m 458 0 q 450 0 419 3 q 388 6 349 6 l 210 6 q 63 6 42 10 q 21 14 21 32 q 21 62 252 334 q 484 606 484 623 q 484 634 342 634 q 200 634 181 638 q 152 644 152 672 q 152 701 181 701 q 188 701 219 698 q 250 695 290 695 l 411 695 q 591 695 591 676 q 591 648 558 606 l 371 382 q 364 374 245 231 q 125 89 125 81 q 125 68 285 68 q 444 68 459 64 q 487 58 487 29 q 487 0 458 0 z"},"x":{"x_min":0,"x_max":483,"ha":483,"o":"m 209 264 q 209 266 190 318 l 169 372 q 133 474 133 480 q 133 496 179 496 l 190 496 q 208 496 219 475 q 221 470 245 401 q 269 332 271 332 q 276 332 303 365 q 331 398 354 434 q 378 469 385 476 q 406 496 452 496 l 458 495 q 458 489 419 448 q 407 435 352 353 q 296 271 296 257 q 296 244 337 136 q 378 28 378 18 q 378 2 331 2 l 319 2 q 298 2 290 21 q 289 25 276 62 l 260 106 q 232 185 228 185 q 224 185 196 149 q 167 113 140 72 q 112 30 109 28 q 86 3 44 3 q 31 3 31 6 q 31 12 47 28 l 63 44 q 77 58 80 62 q 83 65 146 156 q 209 248 209 264 z"},")":{"x_min":0,"x_max":341,"ha":341,"o":"m 278 407 q 278 230 202 75 q 158 -17 97 -91 q 37 -165 13 -165 q -11 -165 -11 -152 q -11 -145 30 -91 q 71 -37 80 -23 q 134 59 161 130 q 214 268 214 417 q 214 514 173 636 q 153 696 153 707 q 153 722 179 722 l 187 722 q 192 722 198 714 q 226 678 252 586 q 278 494 278 407 z"},"&":{"x_min":0,"x_max":647,"ha":647,"o":"m 380 111 l 380 116 q 380 121 345 165 q 311 208 282 262 q 253 316 248 316 l 245 316 q 213 316 178 270 q 155 241 155 194 l 155 190 q 155 132 194 96 q 233 61 285 61 l 288 61 l 291 62 q 323 62 351 82 q 380 103 380 111 z m 285 514 l 285 501 q 285 467 302 438 q 306 431 310 431 l 312 431 q 334 431 390 502 q 421 542 421 579 l 421 589 q 421 606 410 619 q 400 631 387 631 l 373 631 q 344 631 314 594 q 285 556 285 514 z m 569 22 q 569 6 549 6 q 529 6 489 38 q 467 55 426 55 q 421 55 398 45 q 345 22 262 22 q 180 22 140 59 q 118 79 105 113 q 93 147 93 196 q 93 245 112 278 q 132 312 193 358 q 253 404 253 420 q 253 426 242 473 q 230 521 230 572 q 230 623 265 659 q 299 694 347 694 q 395 694 434 655 q 473 616 473 558 q 473 500 451 467 q 441 452 405 421 q 368 391 365 387 q 342 358 342 323 q 342 289 379 236 q 402 204 418 204 q 435 204 469 242 q 502 280 528 280 q 542 280 552 269 q 562 257 562 248 q 562 239 541 189 q 520 139 520 119 q 520 99 539 69 l 559 41 q 569 26 569 22 z"},"_":{"x_min":0,"x_max":528,"ha":528,"o":"m -11 -85 l 479 -85 q 501 -85 501 -97 q 501 -133 476 -133 l -14 -133 q -36 -133 -36 -121 l -35 -117 l -35 -112 q -35 -85 -11 -85 z"},"v":{"x_min":0,"x_max":474,"ha":474,"o":"m 494 478 q 494 467 470 431 q 445 395 346 219 q 247 43 240 33 q 221 4 195 4 q 170 4 163 32 q 160 42 130 204 q 100 366 99 372 q 98 377 85 421 q 72 466 72 480 q 72 487 95 487 q 117 487 129 478 q 141 469 150 435 q 160 401 184 253 q 207 104 216 104 q 222 104 304 260 q 386 416 401 439 q 434 489 477 489 q 494 489 494 478 z"},"O":{"x_min":0,"x_max":712,"ha":712,"o":"m 301 64 l 314 64 q 353 64 396 95 q 486 159 537 313 q 565 402 565 471 l 565 495 q 565 561 536 598 q 506 636 465 636 l 451 636 q 410 636 365 603 q 272 534 224 372 q 200 293 200 221 l 200 212 q 200 148 227 106 q 254 64 301 64 z m 479 703 l 497 703 q 535 703 564 686 q 647 636 647 500 q 647 416 614 320 q 582 224 529 151 q 476 77 411 37 q 347 -2 287 -2 l 269 -2 q 240 -2 211 11 q 182 24 162 48 q 119 102 119 189 l 119 220 q 119 221 119 222 q 119 296 153 390 q 224 583 354 663 q 419 703 479 703 z"},"(":{"x_min":0,"x_max":341,"ha":341,"o":"m 213 -144 q 213 -165 187 -165 q 160 -165 124 -59 q 89 47 89 144 l 89 176 q 89 321 161 477 q 202 566 266 644 q 330 722 350 722 l 357 722 q 376 722 376 708 q 376 702 339 653 q 302 604 284 578 q 236 508 207 434 q 152 294 152 148 q 152 43 190 -71 q 213 -138 213 -144 z"},"C":{"x_min":0,"x_max":625,"ha":625,"o":"m 559 101 q 559 74 476 39 q 393 5 331 5 q 212 5 145 81 q 77 157 77 278 q 77 363 105 441 q 133 519 181 575 q 229 632 293 665 q 356 698 423 698 q 489 698 563 668 q 638 639 638 615 q 638 602 625 591 q 612 580 604 580 q 595 580 574 592 q 501 637 436 637 q 315 637 238 542 q 196 490 172 422 q 148 354 148 285 q 148 135 250 83 q 287 63 336 63 q 386 63 437 85 q 444 88 485 111 q 525 133 535 133 q 559 133 559 101 z"},"W":{"x_min":0,"x_max":881,"ha":881,"o":"m 937 665 q 937 658 919 627 l 894 583 l 882 560 q 875 546 826 437 l 769 313 q 677 114 667 93 l 644 45 q 627 16 594 16 q 574 16 563 63 q 552 110 531 326 q 509 542 498 542 l 487 524 l 441 426 q 430 402 363 261 q 295 121 267 70 q 238 19 205 19 q 186 19 177 44 l 174 69 q 171 94 166 151 q 162 208 160 229 l 150 337 q 146 378 146 391 l 141 446 q 132 537 130 552 l 126 577 l 122 601 q 114 643 114 664 q 114 686 135 686 q 157 686 171 673 q 185 661 190 628 q 195 595 211 373 q 228 150 237 150 q 243 150 372 412 q 500 674 516 674 q 550 674 559 636 q 562 621 585 384 q 609 147 622 147 q 625 147 697 305 q 769 463 795 522 q 821 581 831 602 l 843 625 q 865 663 889 677 q 903 685 925 685 q 937 685 937 665 z"},"A":{"x_min":0,"x_max":611,"ha":611,"o":"m 399 298 l 399 302 l 398 307 l 395 373 q 395 378 395 383 l 391 467 l 391 477 l 389 514 l 389 523 l 388 542 l 388 552 l 387 569 l 386 583 q 386 592 383 592 q 381 592 374 572 q 367 551 362 540 q 357 528 333 467 q 310 406 300 388 q 291 371 283 353 q 275 334 251 304 q 232 277 232 273 q 232 269 264 269 l 288 268 l 291 267 l 302 267 l 339 264 q 374 264 386 272 q 399 280 399 298 z m 499 42 q 499 17 464 17 l 454 17 q 426 17 419 34 q 415 43 408 108 q 401 173 387 184 q 365 201 232 201 q 191 201 184 190 q 176 179 153 118 q 129 58 113 38 q 96 19 54 19 q 45 19 45 26 q 45 33 80 86 q 114 139 231 395 q 348 651 354 663 q 375 702 409 702 q 433 702 437 677 q 438 672 441 632 l 471 335 l 481 241 q 499 68 499 53 z"},"f":{"x_min":0,"x_max":323,"ha":323,"o":"m 353 663 q 302 663 275 632 q 238 589 238 535 q 238 513 273 499 q 308 484 308 470 q 308 447 271 427 q 234 407 218 371 q 201 336 177 206 q 136 -9 108 -33 q 95 -44 73 -44 l 64 -44 q 49 -44 49 -28 q 49 -12 70 45 q 90 102 112 221 q 135 341 135 391 q 135 402 124 418 q 114 433 114 447 q 114 461 152 507 q 171 529 189 585 q 208 641 231 668 q 278 721 351 721 l 362 721 q 417 721 417 700 q 417 680 393 667 q 384 663 353 663 z"},"Q":{"x_min":0,"x_max":714,"ha":714,"o":"m 537 -20 l 543 -25 l 546 -29 q 551 -33 553 -36 q 551 -37 537 -41 q 525 -45 478 -51 q 432 -57 431 -57 l 421 -57 q 388 -57 316 -21 q 244 15 223 41 q 147 130 147 254 l 147 281 q 147 346 170 433 q 192 520 230 582 q 311 714 415 714 l 435 714 q 476 714 509 695 q 579 655 605 559 q 619 510 619 461 l 619 423 q 619 345 587 247 q 569 193 532 131 q 496 70 496 47 q 496 24 537 -20 z m 334 67 l 347 67 q 388 67 388 112 q 388 157 411 182 q 421 193 443 204 q 464 214 469 218 q 499 240 517 276 q 567 380 567 484 l 567 501 q 567 560 540 598 q 512 636 467 636 l 453 636 l 452 636 q 407 636 362 599 q 272 523 228 379 q 205 303 205 249 l 205 227 q 205 131 286 83 q 313 67 334 67 z"},"w":{"x_min":0,"x_max":701,"ha":701,"o":"m 708 486 q 721 486 721 476 q 721 465 690 411 q 659 356 592 221 q 525 85 504 48 q 483 11 460 11 q 437 11 428 36 q 423 52 402 211 q 382 371 374 371 q 372 371 296 219 q 221 68 212 52 q 189 11 164 11 q 140 11 132 32 q 128 43 115 156 q 103 268 96 320 q 90 372 81 414 q 71 456 71 470 q 71 485 97 485 q 130 485 144 436 q 149 414 164 270 q 179 125 190 125 q 197 125 273 281 q 349 438 354 447 q 372 478 396 478 q 419 478 427 454 q 429 447 437 376 q 465 123 477 123 q 484 123 556 276 q 628 429 643 448 q 671 486 708 486 z"},"-":{"x_min":0,"x_max":343,"ha":343,"o":"m 273 245 l 89 245 q 59 245 59 252 l 59 257 q 61 269 61 274 q 61 297 76 303 q 81 305 107 305 l 278 305 q 312 305 312 297 l 312 293 l 312 291 l 310 276 q 310 245 273 245 z"},"E":{"x_min":0,"x_max":548,"ha":548,"o":"m 227 458 q 227 435 298 435 q 370 435 425 417 q 444 410 444 387 q 444 348 416 338 q 404 334 308 323 q 212 311 194 296 q 154 264 154 130 q 154 82 169 74 q 184 67 321 67 l 390 67 q 406 66 422 66 q 462 66 462 44 q 462 32 451 19 q 441 6 414 6 l 206 6 q 145 6 93 28 q 68 38 68 69 q 68 99 118 256 q 169 413 175 439 q 181 465 185 550 q 189 634 199 648 q 208 663 230 664 q 252 666 350 680 q 448 693 492 693 l 509 693 q 544 693 544 669 q 544 645 526 636 q 508 628 450 628 l 347 634 q 296 634 282 613 q 268 592 247 531 q 227 470 227 458 z"},"s":{"x_min":0,"x_max":439,"ha":439,"o":"m 25 68 q 25 104 62 104 q 63 104 124 71 q 159 52 200 52 q 242 52 276 73 q 310 95 310 131 q 310 167 289 185 q 268 203 206 233 q 143 264 118 292 q 93 320 93 371 q 93 421 141 460 q 188 500 250 500 l 262 500 q 301 500 357 480 q 413 461 413 443 q 413 407 375 407 q 368 407 332 427 q 297 446 256 446 q 215 446 187 424 q 159 401 159 370 q 159 339 190 315 q 199 310 262 277 q 325 245 345 223 q 376 190 376 136 q 376 82 326 40 q 275 -2 206 -2 l 193 -2 q 149 -2 87 23 q 25 48 25 68 z"},">":{"x_min":0,"x_max":587,"ha":587,"o":"m 84 50 q 80 50 80 62 q 80 107 107 125 q 122 136 287 214 q 452 292 452 297 q 452 311 296 393 q 140 475 135 479 q 109 499 109 534 q 109 551 123 551 q 132 551 174 524 q 216 497 341 435 q 466 373 511 344 q 537 328 537 303 q 537 277 515 264 q 507 259 483 248 q 459 236 427 220 q 395 204 371 193 q 348 182 311 164 q 274 145 220 120 q 167 94 130 72 q 93 50 84 50 z"},"l":{"x_min":0,"x_max":259,"ha":259,"o":"m 210 722 l 223 722 q 244 722 244 716 l 244 710 q 244 688 198 431 q 151 174 151 101 l 153 54 q 153 22 143 11 q 133 -1 111 -1 l 98 -1 q 74 -1 74 55 l 74 78 q 74 109 102 263 q 129 418 143 487 q 157 556 166 623 q 174 690 178 703 q 184 722 210 722 z"},"8":{"x_min":0,"x_max":559,"ha":559,"o":"m 224 79 l 233 79 q 306 79 362 126 q 417 173 417 223 l 417 233 q 417 260 387 282 q 357 304 316 304 l 303 304 q 249 304 193 252 q 137 200 137 153 l 137 143 q 137 115 157 100 q 187 79 224 79 z m 218 494 l 218 488 q 218 461 246 441 q 274 421 310 421 l 313 421 q 361 421 410 466 q 459 511 459 555 l 459 558 q 459 584 438 600 q 417 616 388 616 l 368 616 q 312 616 265 577 q 218 539 218 494 z m 89 113 l 89 134 q 89 200 129 257 q 168 314 208 339 q 235 357 235 361 q 235 365 214 385 q 192 405 178 429 q 165 452 165 484 q 165 517 184 559 q 203 601 238 635 q 306 701 389 701 l 390 701 q 444 701 476 668 q 509 636 509 587 l 509 577 q 509 475 411 395 q 389 376 389 372 q 389 367 413 347 q 438 327 452 306 q 466 286 466 242 q 466 198 446 152 q 426 106 396 72 q 319 -11 214 -11 q 161 -11 125 26 q 89 62 89 113 z"},"\\":{"x_min":0,"x_max":408,"ha":408,"o":"m 113 733 l 127 733 q 145 733 153 717 q 179 668 218 512 q 359 -52 359 -66 q 359 -76 329 -76 q 303 -76 287 -13 q 216 271 182 381 q 149 490 116 657 q 114 664 106 694 q 98 724 98 729 q 98 733 113 733 z"},"e":{"x_min":0,"x_max":511,"ha":511,"o":"m 407 347 l 407 361 q 407 385 382 405 q 356 425 319 425 l 300 425 q 252 425 208 393 q 144 346 144 309 l 144 307 q 144 304 152 304 l 158 304 l 161 305 l 174 306 q 188 308 195 308 q 202 309 214 311 q 226 312 237 312 l 241 312 l 244 313 l 266 314 q 270 315 272 315 l 336 318 q 390 318 398 323 q 407 327 407 347 z m 400 105 q 429 105 429 82 q 429 58 362 29 q 296 1 247 0 q 153 0 103 53 q 53 105 53 192 l 53 204 q 53 255 83 312 q 139 418 237 458 q 309 488 360 488 q 412 488 441 462 q 470 435 470 387 l 470 376 q 470 348 460 321 q 450 294 437 286 q 424 278 340 264 q 256 250 202 242 q 147 235 140 232 q 119 223 119 176 q 119 128 152 93 q 184 57 250 57 q 281 57 338 81 q 396 105 400 105 z"},"b":{"x_min":0,"x_max":548,"ha":548,"o":"m 229 56 l 238 56 q 263 56 295 79 q 328 101 351 140 q 408 240 408 332 l 408 348 q 408 385 393 410 q 377 436 354 436 l 341 436 q 313 436 282 410 q 218 358 190 237 q 173 162 173 127 l 174 122 q 174 89 189 73 q 204 56 229 56 z m 468 322 q 468 199 400 96 q 372 54 334 24 q 296 -5 267 -5 q 237 -5 198 9 q 159 23 146 30 q 132 37 129 37 q 126 37 114 23 q 102 10 90 10 q 79 10 79 25 q 79 41 104 141 q 167 384 183 604 q 188 679 190 686 q 195 699 215 699 q 242 699 242 673 q 242 669 223 584 q 204 500 204 479 q 204 476 207 476 q 211 476 227 486 q 286 524 316 524 q 347 523 377 509 q 468 464 468 322 z"},"%":{"x_min":0,"x_max":770,"ha":770,"o":"m 658 207 l 658 220 q 658 248 648 265 q 639 283 620 283 l 617 283 q 586 283 554 232 q 522 182 522 120 l 522 104 q 522 73 534 59 q 546 45 558 45 l 566 45 q 594 45 625 95 q 657 145 657 197 q 658 204 658 207 z m 289 650 l 281 650 q 250 650 219 596 q 188 543 188 485 l 188 472 q 189 462 189 450 q 189 439 201 426 q 212 413 224 413 l 231 413 q 260 413 292 462 q 323 512 323 561 l 325 577 l 325 596 q 324 603 324 613 q 324 624 312 637 q 301 650 289 650 z m 716 245 l 716 220 q 716 186 700 139 q 684 93 657 59 q 631 25 603 9 q 574 -7 551 -7 l 537 -7 q 503 -7 484 21 q 464 49 464 94 q 464 139 480 186 q 496 232 522 268 q 574 335 634 335 l 639 335 q 669 335 693 312 q 716 289 716 245 z m 715 698 q 715 673 195 17 q 177 -6 150 -6 l 143 -6 q 130 -6 130 -2 q 130 5 185 77 q 626 652 657 685 q 672 702 695 702 l 703 702 q 715 702 715 698 z m 218 360 l 204 360 q 170 360 150 388 q 131 417 131 454 l 131 475 q 131 510 147 557 q 163 604 188 635 q 239 703 300 703 l 304 703 l 309 702 q 340 702 361 677 q 382 651 382 608 l 382 593 q 382 592 382 591 q 382 553 366 507 q 336 420 276 381 q 245 360 218 360 z"},"m":{"x_min":0,"x_max":789,"ha":789,"o":"m 729 345 l 729 326 q 729 212 687 69 q 672 19 639 19 q 617 19 617 50 q 617 51 624 81 q 632 112 636 136 l 644 176 q 670 311 670 348 q 670 385 651 405 q 632 426 602 426 q 540 426 497 357 q 464 305 427 158 q 414 106 409 91 l 403 76 q 395 60 364 60 q 333 60 328 67 q 322 73 322 124 q 322 175 335 246 q 348 316 348 354 q 348 391 337 408 q 326 426 297 426 q 268 426 237 403 q 206 380 183 342 q 160 303 144 221 q 128 139 125 105 q 123 71 113 46 q 104 21 78 21 q 51 21 51 43 l 51 60 q 51 127 103 298 q 155 469 176 469 q 197 469 206 456 q 208 452 211 434 q 215 416 220 416 q 225 416 242 424 q 259 432 278 440 q 298 448 333 448 q 393 448 428 419 l 438 409 q 453 395 459 395 q 466 395 495 422 q 559 481 617 481 q 675 481 702 444 q 729 407 729 345 z"},"#":{"x_min":0,"x_max":595,"ha":595,"o":"m 238 252 q 247 252 281 263 q 314 274 329 274 q 343 274 354 297 q 407 402 407 436 l 407 438 q 407 447 366 447 l 364 448 q 312 448 294 421 q 291 417 282 386 l 258 315 l 256 309 l 254 306 l 249 291 l 247 288 l 246 284 l 233 252 l 234 252 z m 413 507 q 428 507 449 582 q 471 657 481 670 q 491 683 510 683 q 530 683 530 671 q 530 667 523 648 q 496 575 496 531 q 496 517 518 505 q 557 484 557 480 q 557 461 543 452 q 529 443 496 439 q 464 435 455 425 q 445 415 440 388 q 436 362 434 354 l 430 337 q 422 309 422 304 q 422 279 453 272 q 494 263 494 238 q 494 219 449 209 q 404 200 396 189 q 389 179 368 111 q 346 43 340 33 q 327 13 289 13 l 285 20 q 285 25 293 48 q 302 70 315 116 q 329 162 329 173 q 329 193 257 193 q 234 193 226 178 q 222 171 217 145 q 212 118 199 75 q 187 32 176 17 q 166 2 146 2 q 125 2 125 13 q 125 20 134 41 q 167 121 167 151 q 167 181 142 193 q 105 210 105 222 q 105 242 140 256 l 154 261 l 170 264 q 195 271 204 281 q 213 290 218 317 q 224 345 230 368 q 236 391 236 401 q 236 425 202 432 q 167 440 167 455 q 167 476 181 486 q 195 497 227 502 q 258 507 262 510 q 273 518 296 597 q 319 676 324 683 q 336 698 364 698 q 372 698 372 683 l 333 536 q 333 518 354 512 q 375 507 413 507 z"},",":{"x_min":0,"x_max":289,"ha":289,"o":"m 121 112 l 139 112 q 170 112 170 98 l 170 95 q 170 37 116 -55 q 91 -98 65 -119 q 39 -141 28 -141 l 21 -141 q 11 -141 11 -128 l 11 -126 q 11 -122 45 -80 q 80 -38 80 -10 q 80 -7 78 0 q 75 8 75 20 l 76 33 q 76 63 90 88 q 104 112 121 112 z"},"n":{"x_min":0,"x_max":535,"ha":535,"o":"m 415 16 q 368 16 368 44 q 368 57 388 177 q 408 297 408 345 q 408 443 326 443 q 289 443 252 419 q 216 395 196 360 q 164 305 149 225 q 124 86 113 56 q 101 27 65 27 q 43 27 43 44 q 43 131 124 427 q 135 469 163 469 q 186 469 191 462 q 196 454 197 436 q 198 418 204 418 q 206 418 220 431 q 289 493 351 493 q 414 493 447 461 q 480 428 480 363 l 480 351 q 480 243 432 33 q 428 16 415 16 z"},"h":{"x_min":0,"x_max":536,"ha":536,"o":"m 385 372 q 385 437 328 437 q 304 437 274 411 q 244 386 224 344 q 203 303 179 183 q 155 63 154 58 q 138 4 117 4 q 86 4 86 22 l 86 35 q 86 41 116 194 q 146 347 152 393 q 159 440 167 549 q 174 658 175 661 q 179 688 198 688 l 208 688 q 234 688 234 646 q 234 644 230 616 q 225 589 222 566 l 210 489 q 210 482 213 482 l 218 484 l 229 490 q 237 494 267 501 q 296 508 338 508 q 380 508 412 473 q 444 437 444 379 l 444 364 q 444 254 386 28 q 380 6 358 6 q 329 6 329 37 q 329 68 357 214 q 385 360 385 372 z"},"z":{"x_min":0,"x_max":469,"ha":469,"o":"m 140 499 l 233 493 l 336 493 q 463 493 463 480 q 463 456 436 424 q 409 392 266 237 q 123 82 123 69 q 123 62 235 62 q 347 62 364 59 q 389 54 389 25 q 389 0 361 0 q 357 0 340 1 l 316 4 q 293 6 268 6 l 151 6 q 16 6 16 22 q 16 44 187 235 q 358 425 358 426 q 358 437 250 437 q 142 437 127 443 q 112 449 112 482 q 112 499 140 499 z"},"B":{"x_min":0,"x_max":594,"ha":594,"o":"m 234 -2 q 234 -2 139 -2 q 83 -2 83 10 l 83 18 q 83 18 83 18 q 83 18 83 19 q 83 27 111 114 q 168 293 182 440 q 195 579 217 638 q 228 665 258 672 q 336 692 418 692 l 428 692 q 476 692 506 665 q 537 638 537 586 l 537 576 q 537 504 457 432 q 419 398 419 394 q 419 390 443 369 q 466 348 480 319 q 495 290 495 240 q 495 191 473 144 q 432 53 333 15 q 286 -2 234 -2 z m 482 551 l 482 558 q 482 580 463 592 q 444 604 410 604 l 374 604 l 369 604 l 359 604 l 346 603 l 336 603 l 314 602 l 297 601 q 266 601 257 584 q 209 494 209 425 l 209 422 q 209 414 222 414 l 226 414 l 310 426 q 379 426 418 453 q 457 480 470 507 q 482 534 482 551 z m 461 235 l 461 239 q 461 267 437 283 q 413 300 366 300 l 319 300 l 314 300 l 299 300 l 289 299 l 278 299 l 268 299 l 225 296 q 206 296 197 274 q 147 162 147 103 l 147 97 q 147 88 160 88 l 164 89 l 168 89 l 241 98 l 250 99 l 266 99 q 349 99 405 138 q 433 157 447 185 q 461 214 461 235 z"},"K":{"x_min":0,"x_max":598,"ha":598,"o":"m 236 401 q 252 401 349 502 q 394 550 428 590 q 462 630 481 646 q 524 684 564 684 q 571 684 571 677 q 571 670 536 636 q 500 601 470 566 l 388 474 q 377 461 365 447 l 353 435 q 327 403 327 365 q 327 349 396 191 l 439 96 q 453 64 465 44 q 478 23 478 15 q 478 7 457 7 q 425 7 401 48 q 387 72 346 176 q 306 280 300 291 q 288 314 269 314 q 241 314 226 278 q 205 230 198 187 q 192 145 187 90 q 182 35 182 35 q 175 5 146 5 q 128 5 116 12 q 105 20 105 43 q 105 66 122 215 q 139 364 142 378 q 190 575 217 649 q 233 693 266 693 l 280 693 q 299 693 299 671 l 230 413 q 230 401 236 401 z"},"R":{"x_min":0,"x_max":599,"ha":599,"o":"m 421 604 l 393 604 l 388 604 l 311 600 q 301 599 296 599 q 269 599 258 574 q 205 461 205 403 l 205 399 q 205 388 216 388 l 219 388 l 224 388 q 237 388 344 404 q 431 417 475 477 q 499 509 499 542 l 499 550 l 498 554 q 498 577 477 591 q 456 604 421 604 z m 438 1 l 428 1 q 410 1 399 23 q 388 45 363 137 q 338 228 315 269 q 297 300 248 300 q 216 300 209 281 q 208 278 197 172 q 186 66 174 34 q 163 2 120 2 q 105 2 105 9 q 105 65 162 398 q 162 400 179 457 q 195 513 212 583 q 228 654 231 662 q 247 700 378 700 l 401 700 q 462 700 499 668 q 536 636 536 579 q 536 437 439 362 q 388 323 388 309 q 388 287 426 156 q 464 24 464 18 q 464 1 438 1 z"},"T":{"x_min":0,"x_max":526,"ha":526,"o":"m 245 702 l 503 702 q 546 702 546 690 q 546 647 515 636 q 504 631 442 626 q 380 622 371 606 q 366 598 361 558 q 357 517 345 460 q 334 404 302 232 q 271 61 262 29 q 254 3 200 3 q 187 3 187 16 q 187 16 195 45 q 203 73 217 150 l 238 257 l 240 269 q 244 289 271 433 q 297 578 297 585 q 297 622 206 627 q 159 630 159 643 l 159 651 q 159 679 180 690 q 201 702 245 702 z"},"P":{"x_min":0,"x_max":561,"ha":561,"o":"m 228 370 q 280 370 342 390 q 404 411 427 428 q 450 445 469 479 q 489 514 489 549 l 488 553 q 488 578 470 593 q 452 607 422 607 l 394 607 l 365 605 q 345 604 341 604 q 282 604 269 585 q 269 584 235 490 q 202 396 202 379 l 202 375 q 202 369 211 369 l 215 369 q 224 370 228 370 z m 558 586 l 558 567 q 558 522 535 473 q 511 423 464 385 q 416 346 382 333 q 348 319 275 305 q 202 290 185 271 q 169 253 141 96 q 131 43 127 35 q 115 1 69 1 l 62 1 q 52 1 52 8 q 52 15 60 43 q 68 71 91 193 q 113 315 118 334 q 184 573 216 631 q 229 655 266 664 q 351 685 434 685 l 452 685 q 502 685 530 655 q 558 626 558 586 z"},"|":{"x_min":0,"x_max":361,"ha":361,"o":"m 201 765 l 217 765 q 238 765 238 737 l 238 716 l 237 706 l 234 497 l 234 476 l 233 466 q 233 456 233 445 l 233 435 q 233 424 233 414 l 232 404 l 232 383 l 231 352 l 231 331 l 231 321 q 231 311 231 300 l 230 290 q 230 280 230 270 l 229 166 q 229 156 229 146 l 228 135 q 228 125 228 114 l 228 104 l 228 83 l 227 73 l 227 52 l 226 -10 l 226 -31 l 225 -42 l 225 -62 l 223 -177 q 223 -208 202 -208 l 186 -208 q 165 -208 165 -180 l 165 -159 l 166 -148 l 169 60 q 169 70 169 81 l 169 91 q 169 102 169 112 l 170 122 l 170 143 l 170 153 q 170 164 170 174 l 171 205 q 171 215 171 226 l 172 236 q 172 246 172 256 l 172 267 l 172 288 l 174 391 l 174 412 l 175 422 q 175 432 175 442 l 175 453 q 175 463 175 474 l 176 484 l 176 505 l 178 599 l 178 620 l 180 734 q 180 765 201 765 z"},"t":{"x_min":0,"x_max":333,"ha":333,"o":"m 317 483 q 317 463 306 452 q 295 441 262 435 q 229 430 216 403 q 204 376 183 270 q 162 163 162 123 q 162 83 205 66 q 248 50 248 20 q 248 -3 208 -3 l 201 -3 q 151 -3 122 28 q 92 59 92 98 q 92 138 116 257 q 140 375 140 403 q 140 431 122 436 q 104 441 104 462 q 104 483 133 495 q 162 507 164 510 q 166 514 174 557 q 182 601 193 617 q 204 634 233 634 l 240 634 q 252 634 252 619 l 239 550 q 239 524 271 509 q 317 488 317 483 z"},"M":{"x_min":0,"x_max":788,"ha":788,"o":"m 379 73 q 352 73 340 110 l 292 342 q 251 536 241 536 q 225 536 177 339 q 130 143 112 96 q 86 27 59 27 q 42 27 42 40 q 42 66 56 107 q 70 147 80 190 q 176 593 187 625 q 206 679 234 679 q 272 679 301 584 q 306 568 345 379 q 385 189 392 189 q 398 189 508 380 q 618 571 639 600 q 697 679 733 679 q 761 679 761 646 q 761 628 730 415 l 712 285 q 711 273 704 223 q 696 173 694 125 q 692 77 690 66 q 684 32 664 32 q 644 32 639 51 q 634 69 634 111 q 634 152 657 323 q 680 493 680 515 q 680 538 674 538 q 668 538 531 305 q 394 73 379 73 z"},"g":{"x_min":0,"x_max":553,"ha":553,"o":"m 397 369 l 397 388 q 397 411 382 428 q 366 446 340 446 l 328 446 q 297 446 266 421 q 234 396 210 356 q 158 270 158 176 l 158 170 q 158 130 173 105 q 188 81 217 81 l 221 81 l 225 81 q 249 81 282 104 q 314 126 337 164 q 360 201 379 266 q 397 331 397 369 z m 447 484 q 474 484 474 459 q 474 435 454 330 q 435 226 425 96 q 416 -33 406 -57 q 380 -123 320 -159 q 260 -195 194 -195 q 129 -195 77 -170 q 25 -146 25 -121 q 25 -75 41 -75 q 56 -75 105 -106 q 155 -137 198 -137 q 267 -137 310 -93 q 334 -67 353 -21 q 372 26 372 42 l 370 47 q 369 47 356 41 q 344 36 323 26 q 303 17 269 17 q 196 17 151 74 q 106 131 106 222 q 106 274 121 327 q 136 380 159 416 q 182 452 228 483 q 273 514 308 514 q 342 514 365 501 q 387 488 400 476 q 412 464 415 464 q 417 464 427 474 q 436 484 447 484 z"},"j":{"x_min":0,"x_max":256,"ha":256,"o":"m 207 454 l 207 432 q 207 405 160 174 q 114 -58 104 -84 q 60 -198 -50 -198 q -76 -198 -76 -187 q -76 -163 -65 -151 q -54 -140 -29 -131 q -3 -123 16 -106 q 35 -90 46 -57 q 57 -23 94 163 q 130 350 130 407 q 130 464 137 482 q 145 500 174 500 l 188 500 q 205 500 206 478 q 207 455 207 454 z m 263 683 l 263 676 l 262 670 l 262 667 q 260 661 260 657 l 258 647 q 258 632 246 617 q 235 603 218 603 l 216 603 l 215 602 l 202 601 l 192 601 l 191 601 l 188 601 q 186 602 184 602 q 172 602 172 617 l 172 624 l 173 632 l 175 640 l 177 651 q 177 665 191 686 q 198 696 213 696 q 220 699 222 699 l 235 700 l 242 700 l 254 698 q 263 698 263 683 z"},"i":{"x_min":0,"x_max":251,"ha":251,"o":"m 168 500 l 192 500 q 204 500 204 492 l 204 468 q 204 442 181 326 q 158 209 153 154 q 147 98 132 39 q 122 0 91 0 l 77 0 q 57 0 57 9 l 57 14 q 57 27 91 197 q 125 366 125 412 q 125 458 133 479 q 142 500 168 500 z m 254 686 l 254 673 l 254 672 l 252 661 q 252 659 251 655 q 250 651 250 642 q 250 632 239 618 q 228 604 215 604 q 208 601 206 601 l 194 600 l 184 600 q 164 600 164 616 l 164 623 l 165 624 l 165 628 l 167 645 q 167 666 180 681 q 192 697 208 697 l 211 698 l 228 700 l 230 700 l 244 697 q 254 697 254 686 z"},"y":{"x_min":0,"x_max":479,"ha":479,"o":"m 39 -200 l 27 -200 q -4 -200 -4 -187 l -4 -179 q -4 -152 59 -118 q 103 -94 135 -44 q 167 6 167 74 q 167 95 144 272 q 121 449 121 469 q 121 497 155 497 q 180 497 188 457 q 193 431 210 280 q 227 128 232 128 q 238 129 309 286 q 380 443 380 444 q 406 493 446 493 q 458 493 458 488 q 458 483 446 461 q 433 440 412 392 q 246 23 201 -50 q 156 -124 123 -153 q 68 -200 39 -200 z"},"@":{"x_min":0,"x_max":840,"ha":840,"o":"m 530 404 l 530 412 q 530 422 527 430 l 540 438 l 562 444 q 589 444 589 410 l 587 387 l 580 338 q 574 290 574 252 q 574 215 580 204 q 589 183 609 183 q 629 183 658 203 q 687 222 710 264 q 744 322 744 413 q 744 453 722 502 q 701 551 662 583 q 623 614 579 630 q 534 645 471 645 q 407 645 343 618 q 250 578 185 482 q 120 386 120 260 q 120 199 141 144 q 183 31 295 -14 q 354 -38 422 -38 q 490 -38 556 -17 l 582 -9 l 604 -3 q 636 -3 636 -11 q 636 -31 583 -47 q 486 -77 410 -77 q 265 -77 174 8 q 70 104 70 274 q 70 358 104 435 q 172 591 310 658 q 392 697 487 697 q 625 697 711 617 q 798 537 798 416 q 798 296 737 212 q 677 127 599 127 q 573 127 556 139 l 541 153 q 523 170 515 170 l 498 163 l 478 151 q 438 131 396 131 q 355 131 311 179 q 266 227 266 297 q 266 367 309 407 q 352 448 416 448 q 430 448 445 444 q 408 427 378 385 q 347 344 334 299 q 320 253 320 228 l 320 210 q 320 188 333 169 q 345 150 369 150 l 372 150 q 394 150 424 171 q 455 192 471 221 q 530 325 530 404 z"},".":{"x_min":0,"x_max":288,"ha":288,"o":"m 64 13 l 64 23 l 65 32 l 67 43 q 67 64 87 95 q 95 106 115 106 q 120 108 123 108 l 134 109 l 146 109 q 169 109 169 96 l 169 83 l 169 81 l 169 77 q 167 69 167 66 q 167 34 145 12 q 134 0 115 0 l 111 0 l 94 -2 l 92 -2 l 83 -1 l 80 -1 q 77 0 76 0 q 64 0 64 13 z"},"p":{"x_min":0,"x_max":550,"ha":550,"o":"m 234 67 l 243 67 q 305 67 359 154 q 381 188 398 242 q 414 296 414 345 q 414 394 397 418 q 381 442 351 442 l 347 442 q 322 442 293 422 q 265 402 242 365 q 219 328 200 256 q 180 185 180 142 l 180 118 q 180 97 195 82 q 210 67 234 67 z m 353 510 l 369 510 q 423 510 452 466 q 480 422 480 339 l 480 309 q 480 276 449 207 q 417 138 386 100 q 354 63 310 41 q 267 20 232 20 q 197 20 167 29 q 138 38 128 38 q 118 38 97 -74 q 75 -186 61 -186 l 54 -186 q 19 -186 19 -162 q 19 -85 163 413 q 177 464 218 464 q 232 464 234 452 q 237 440 238 440 q 239 439 257 456 q 314 510 353 510 z"},"X":{"x_min":0,"x_max":584,"ha":584,"o":"m 278 377 q 278 384 233 526 q 188 669 188 679 q 188 701 231 701 q 257 701 269 677 q 269 676 306 559 l 343 444 q 356 444 427 558 q 499 672 508 681 q 529 700 572 700 l 582 698 q 582 691 565 672 q 548 652 533 628 l 490 560 q 479 543 473 534 q 369 370 369 346 q 369 339 417 183 q 464 26 464 14 q 464 1 412 1 q 390 1 378 31 q 377 34 340 156 q 303 278 299 278 q 286 278 208 152 q 130 26 126 23 q 105 1 63 1 q 48 1 48 8 q 48 10 65 31 q 83 53 103 84 q 122 116 200 237 q 278 358 278 377 z"},"*":{"x_min":0,"x_max":463,"ha":463,"o":"m 172 590 q 172 609 194 609 q 216 609 236 597 q 255 586 259 586 q 278 586 285 613 q 302 685 305 688 q 315 699 334 699 q 348 699 348 680 q 348 661 336 624 q 324 587 324 581 q 324 576 326 576 q 331 576 370 596 q 409 616 426 616 q 443 616 443 604 l 443 598 q 443 567 396 548 q 348 528 348 512 q 348 510 362 490 q 375 471 375 448 q 375 426 347 426 q 319 426 306 438 q 301 441 298 441 q 295 441 291 438 q 288 435 266 424 q 245 413 240 413 l 236 413 q 214 413 178 433 q 171 437 171 447 l 172 452 q 172 473 187 490 q 201 506 201 518 l 202 528 q 202 531 193 536 q 173 548 172 590 z"},"Y":{"x_min":0,"x_max":559,"ha":559,"o":"m 572 693 q 572 685 554 664 q 535 644 523 623 q 512 603 500 583 q 489 564 421 448 q 354 331 342 305 q 330 278 318 219 q 306 159 294 97 q 282 35 282 33 q 273 0 242 0 l 231 0 q 212 0 212 14 q 212 30 236 155 q 261 279 261 301 q 261 322 215 493 q 169 664 168 676 q 168 701 204 701 l 213 701 q 236 701 249 665 q 254 646 287 519 q 319 391 321 391 q 332 391 410 525 q 488 659 491 664 q 518 697 562 697 q 572 697 572 693 z"},"c":{"x_min":0,"x_max":477,"ha":477,"o":"m 246 2 l 225 2 q 194 2 161 16 q 97 42 72 107 q 56 147 56 196 l 56 208 q 56 208 56 210 q 56 264 78 318 q 123 430 211 473 q 258 496 301 496 l 311 496 q 368 496 417 476 q 466 457 466 436 q 466 420 454 409 q 442 398 433 398 q 425 398 408 408 q 391 418 365 429 q 339 440 304 440 q 269 440 235 421 q 202 402 178 370 q 124 295 124 202 q 124 135 156 95 q 188 56 239 56 q 290 57 333 80 q 377 104 388 104 q 410 104 410 74 q 410 49 351 25 q 292 2 246 2 z"},"!":{"x_min":0,"x_max":308,"ha":308,"o":"m 90 -1 q 79 -1 79 14 l 79 17 l 79 19 l 79 22 l 81 34 q 81 36 81 37 q 81 68 97 84 q 113 100 131 100 l 133 101 l 135 101 l 149 103 l 156 103 l 158 102 l 168 101 q 170 100 171 100 q 180 100 180 92 l 180 76 l 179 74 l 178 64 q 177 62 177 61 q 177 35 158 12 q 147 -1 125 -1 q 123 -2 121 -2 l 111 -3 l 100 -3 l 98 -2 l 95 -2 q 92 -1 90 -1 z m 256 704 l 266 704 q 288 704 288 692 l 288 687 q 288 684 243 469 q 198 254 185 209 q 177 186 155 186 l 146 186 q 133 186 133 198 l 141 251 q 142 263 145 280 q 148 298 149 310 q 172 492 210 668 q 218 704 256 704 z"},"/":{"x_min":0,"x_max":417,"ha":417,"o":"m 39 -68 q 25 -90 0 -90 q -25 -90 -25 -83 q -25 -77 32 26 q 90 129 237 408 q 385 688 401 713 q 417 739 442 739 q 468 739 468 733 q 468 728 452 700 q 436 672 256 330 q 76 -11 39 -68 z"},"[":{"x_min":0,"x_max":340,"ha":340,"o":"m 382 713 q 382 685 363 670 q 359 667 320 662 q 281 658 270 652 q 258 646 253 633 q 248 621 182 297 q 116 -26 116 -78 q 116 -97 146 -103 q 162 -106 182 -109 q 202 -111 210 -115 q 217 -120 217 -142 q 217 -164 195 -164 l 157 -164 q 83 -164 61 -154 q 46 -147 46 -113 l 46 -103 q 46 -73 78 78 q 109 229 146 427 q 182 625 192 660 q 202 695 215 704 q 229 713 271 713 l 359 719 q 382 719 382 713 z"},"6":{"x_min":0,"x_max":558,"ha":558,"o":"m 240 62 l 252 62 q 271 62 301 77 q 330 93 361 135 q 410 202 410 272 l 410 291 q 410 323 392 345 q 374 368 346 368 l 334 368 q 312 368 279 351 q 245 334 217 299 q 173 244 173 164 l 173 150 q 174 141 174 137 q 174 106 194 84 q 214 62 240 62 z m 202 414 q 202 402 219 402 q 220 402 240 408 q 261 415 293 415 q 326 415 362 397 q 431 364 459 282 q 475 237 475 188 q 475 105 432 56 q 389 6 323 6 l 312 6 q 311 6 310 6 q 261 6 221 30 q 135 81 104 188 q 90 235 90 282 l 90 304 q 90 362 124 439 q 157 516 204 566 q 299 670 413 670 l 424 670 q 471 670 504 654 q 518 647 518 640 q 518 617 495 617 l 417 623 q 388 623 350 607 q 312 591 277 557 q 241 523 222 485 q 202 447 202 414 z"},"r":{"x_min":0,"x_max":353,"ha":353,"o":"m 109 21 q 98 0 52 0 q 42 0 42 9 q 42 13 48 35 q 54 58 54 61 l 57 77 l 66 126 q 83 210 105 330 q 126 449 146 472 q 157 483 180 483 q 217 483 217 442 q 217 428 220 428 q 224 428 236 444 q 274 495 319 495 l 325 495 q 363 495 363 470 q 363 425 338 425 l 319 427 q 312 427 293 427 q 274 427 249 413 q 225 399 196 352 q 168 306 139 165 q 110 23 109 21 z"},"2":{"x_min":0,"x_max":550,"ha":550,"o":"m 226 6 q 89 6 72 10 q 44 15 44 34 q 44 73 107 136 q 133 162 250 259 q 368 356 409 409 q 450 461 450 528 q 450 573 417 599 q 384 625 336 625 q 287 625 231 583 q 175 540 155 540 q 134 540 134 559 q 134 600 218 649 q 285 689 359 689 q 432 689 477 644 q 521 599 521 525 q 521 451 462 377 q 423 329 287 218 q 150 108 150 81 q 150 67 274 67 q 399 67 421 60 q 444 53 444 27 q 444 0 420 0 l 336 6 z"},"{":{"x_min":0,"x_max":371,"ha":371,"o":"m 234 -167 l 224 -167 q 173 -167 136 -125 q 111 -97 111 -59 q 111 -21 126 57 q 142 135 142 165 q 142 219 97 244 q 74 256 74 272 q 74 298 122 318 q 157 333 175 370 q 192 406 206 510 q 221 613 249 656 q 268 684 305 704 q 343 724 392 724 q 408 724 408 713 q 408 693 397 682 q 386 671 375 667 l 364 665 q 321 654 301 624 q 282 594 266 494 q 250 394 235 362 q 216 317 171 293 q 154 284 154 278 q 154 276 172 255 q 189 233 197 218 q 205 202 205 172 q 205 141 190 70 q 176 0 176 -40 q 176 -79 214 -99 q 251 -120 251 -144 q 251 -167 234 -167 z"},"9":{"x_min":0,"x_max":558,"ha":558,"o":"m 265 323 l 277 323 q 300 323 332 340 q 363 357 393 394 q 435 447 435 524 l 435 542 q 435 583 416 606 q 396 630 372 630 l 355 630 q 337 630 308 614 q 278 599 255 567 q 200 491 200 417 l 200 403 q 200 368 218 345 q 236 323 265 323 z m 519 410 l 519 389 q 519 331 488 258 q 456 185 410 131 q 363 78 308 50 q 252 21 189 21 q 126 21 97 40 q 91 44 91 48 l 91 53 q 91 69 128 69 l 137 68 l 157 65 q 165 64 191 64 q 217 64 255 80 q 292 96 328 129 q 364 162 386 203 q 408 245 408 276 q 408 291 399 291 q 398 291 372 283 q 347 275 312 275 q 277 275 242 295 q 134 355 134 513 q 134 589 179 637 q 223 685 284 685 l 295 685 q 386 685 450 611 q 480 576 500 522 q 519 468 519 410 z"}," ":{"x_min":0,"x_max":297,"ha":297,"o":""},"I":{"x_min":0,"x_max":289,"ha":289,"o":"m 110 0 l 89 0 q 64 0 64 30 l 64 38 q 64 60 82 111 q 99 161 105 184 q 111 206 141 381 q 171 556 171 583 q 171 643 197 686 q 207 702 240 702 l 247 702 q 267 702 273 699 q 279 696 279 671 l 279 664 q 279 633 254 574 q 246 556 208 367 q 171 179 171 139 l 172 111 q 172 64 149 21 q 137 0 110 0 z"},"H":{"x_min":0,"x_max":667,"ha":667,"o":"m 248 417 q 248 383 373 383 q 423 383 491 397 q 519 403 533 417 q 546 430 568 532 q 589 633 598 648 q 616 681 658 681 q 670 681 670 669 l 670 656 q 670 628 643 537 q 641 529 610 375 q 579 222 577 213 q 539 87 530 69 q 517 44 476 44 q 457 44 448 53 q 439 62 439 88 q 439 115 459 213 q 479 311 479 321 q 479 338 457 345 q 435 352 381 352 q 330 352 234 334 q 207 330 193 315 q 178 301 154 180 q 129 59 122 42 q 108 11 58 11 q 47 11 47 24 q 47 38 59 80 q 71 121 76 140 q 80 159 106 297 q 131 435 140 462 q 186 616 198 637 q 210 659 239 659 q 267 659 276 649 q 285 640 285 618 q 285 597 266 515 q 248 434 248 417 z"},"4":{"x_min":0,"x_max":558,"ha":558,"o":"m 414 562 l 414 567 l 413 567 q 411 567 398 548 q 384 529 364 501 l 313 435 q 235 333 229 328 q 224 322 183 284 q 143 247 143 245 q 143 243 150 243 l 198 243 l 225 245 q 320 245 334 269 q 341 280 365 376 q 389 471 401 510 q 414 549 414 562 z m 346 17 l 338 17 q 312 17 312 39 q 312 40 317 68 q 323 96 323 115 q 323 134 312 144 q 300 154 258 154 q 135 154 95 178 q 86 183 86 195 q 86 207 102 234 q 155 327 420 658 q 456 703 492 703 q 506 703 506 688 q 506 681 459 492 q 412 304 412 285 q 412 267 437 257 q 462 247 462 219 q 462 190 424 180 q 386 169 380 155 q 374 141 372 94 q 369 46 367 35 q 363 17 346 17 z"},"~":{"x_min":0,"x_max":580,"ha":580,"o":"m 200 379 l 218 379 q 254 379 320 339 q 386 298 417 298 q 448 298 480 335 q 513 372 524 372 q 546 372 546 356 l 546 352 q 546 317 491 270 q 454 239 410 239 l 404 239 q 368 239 299 279 q 229 319 199 319 q 169 319 136 282 q 103 245 91 245 q 70 245 70 260 q 70 296 114 337 q 158 379 200 379 z"},"D":{"x_min":0,"x_max":659,"ha":659,"o":"m 390 625 l 376 625 l 369 624 q 299 624 289 595 q 287 588 285 577 q 284 565 281 548 l 278 532 l 277 524 l 274 508 q 235 290 190 154 q 169 92 169 83 q 169 73 200 73 l 211 72 l 230 72 l 236 72 q 355 72 438 185 q 477 238 496 310 q 516 382 516 447 l 515 456 q 515 539 483 582 q 451 625 390 625 z m 206 -1 l 146 -1 q 76 -1 76 12 q 76 21 113 134 q 149 247 178 375 q 208 503 221 580 q 234 656 239 663 q 243 670 267 677 q 323 695 405 695 l 414 694 l 423 694 q 503 694 546 637 q 589 580 589 478 q 589 272 480 135 q 433 75 358 37 q 284 -1 206 -1 z"},"^":{"x_min":0,"x_max":557,"ha":557,"o":"m 517 342 l 517 337 l 511 336 q 461 336 444 362 q 435 376 409 434 q 324 626 314 626 q 308 626 275 566 q 242 505 239 501 q 237 497 216 460 l 199 431 q 163 366 156 359 q 137 336 88 336 l 84 339 q 84 345 105 376 q 127 406 198 531 q 268 655 271 659 q 294 695 321 695 q 347 695 364 667 q 380 640 429 528 q 478 416 497 384 q 517 352 517 342 z"},"0":{"x_min":0,"x_max":566,"ha":566,"o":"m 441 481 l 441 519 q 441 570 424 600 q 406 630 374 630 l 363 630 q 330 630 296 590 q 226 508 193 330 q 178 247 178 193 l 178 186 q 178 125 196 92 q 213 60 246 60 l 252 60 q 281 60 312 89 q 380 153 420 331 q 441 429 441 481 z m 375 700 l 392 700 q 446 700 478 653 q 510 606 510 530 l 510 490 q 510 401 481 299 q 453 198 417 132 q 380 65 332 28 q 284 -10 229 -10 q 174 -10 142 38 q 109 85 109 170 l 109 190 l 110 200 q 110 202 110 203 q 110 282 136 382 q 187 582 282 659 q 332 700 375 700 z"},"F":{"x_min":0,"x_max":514,"ha":514,"o":"m 210 448 q 210 426 231 420 q 244 417 314 408 q 385 399 404 390 q 423 380 423 362 q 423 326 400 317 q 391 313 345 307 q 211 289 195 273 q 179 257 160 161 q 142 64 141 60 q 132 37 107 37 l 97 37 q 76 37 76 55 q 76 64 104 152 q 133 241 141 283 q 148 326 156 462 q 165 599 178 634 q 192 670 231 682 q 270 694 339 694 l 366 695 l 379 695 l 503 695 q 556 695 556 671 q 556 641 535 636 q 528 634 406 634 q 283 634 269 622 q 254 610 232 548 q 210 487 210 448 z"},"`":{"x_min":0,"x_max":390,"ha":390,"o":"m 327 593 l 327 589 q 327 583 320 583 l 310 583 q 284 583 271 599 q 178 707 178 720 q 178 730 201 730 l 210 730 l 226 728 q 246 728 256 717 q 265 706 278 682 q 292 659 309 630 q 327 602 327 593 z"},"k":{"x_min":0,"x_max":491,"ha":491,"o":"m 381 26 q 381 6 353 6 q 326 6 315 24 q 310 34 268 135 q 227 235 209 235 q 173 235 154 103 q 146 50 135 30 q 125 9 104 9 q 87 9 87 32 l 89 44 l 92 57 q 96 75 98 105 q 101 136 114 249 q 126 361 134 398 q 162 526 201 645 q 217 696 235 696 q 263 696 263 678 q 263 661 221 506 q 180 351 180 334 q 180 317 185 317 q 204 317 291 406 q 378 495 390 504 q 401 512 424 512 q 446 512 446 506 l 446 499 q 446 486 378 409 q 310 332 297 312 q 284 293 284 267 q 284 253 332 146 q 381 39 381 26 z"},"u":{"x_min":0,"x_max":533,"ha":533,"o":"m 142 152 q 142 54 220 54 q 257 54 292 76 q 327 97 354 136 q 380 175 403 294 q 426 414 432 433 q 447 475 486 475 q 503 475 503 447 l 503 438 q 503 410 486 354 q 469 298 465 277 q 427 76 425 72 q 411 35 374 35 q 363 35 360 40 q 357 45 354 55 q 351 64 348 64 q 343 64 322 49 q 301 33 271 18 q 240 2 191 2 q 142 2 106 36 q 70 70 70 134 l 70 147 q 70 254 116 453 q 124 485 141 485 q 185 485 185 458 q 185 454 163 326 q 142 198 142 152 z"},"]":{"x_min":0,"x_max":339,"ha":339,"o":"m 176 718 l 215 718 q 292 718 307 709 q 321 700 321 665 l 321 654 q 321 630 289 469 q 256 309 221 121 q 187 -67 176 -105 q 166 -142 152 -150 q 138 -159 106 -159 l 16 -165 l 6 -165 q -15 -165 -15 -157 q -15 -125 7 -114 q 12 -112 47 -109 q 82 -106 96 -100 q 110 -95 121 -65 q 131 -35 156 100 q 181 235 217 405 q 252 575 252 624 q 252 645 237 651 q 230 654 196 660 q 162 667 157 672 q 151 677 151 703 q 151 718 176 718 z"},"U":{"x_min":0,"x_max":656,"ha":656,"o":"m 309 -6 l 291 -6 q 289 -6 288 -6 q 244 -6 204 9 q 90 52 90 189 q 90 234 114 359 q 138 483 139 491 q 141 499 146 527 l 152 561 q 160 599 163 625 l 166 656 q 168 682 169 685 q 173 696 187 696 q 236 696 236 667 q 236 646 199 449 q 162 252 162 192 q 162 132 198 94 q 234 55 298 55 q 426 55 478 160 q 507 217 547 429 q 587 641 593 659 q 605 693 650 693 q 669 693 669 686 q 669 669 657 631 q 645 592 638 552 l 618 452 q 614 432 608 401 q 570 196 539 134 q 507 72 449 33 q 391 -6 309 -6 z"},"o":{"x_min":0,"x_max":541,"ha":541,"o":"m 227 60 l 236 60 q 289 60 342 137 q 365 170 384 227 q 402 283 402 329 l 402 351 q 402 392 384 416 q 365 441 337 441 l 328 441 q 328 441 327 441 q 270 441 217 358 q 190 315 176 263 q 162 210 162 184 l 161 173 l 161 156 q 161 115 178 87 q 196 60 227 60 z m 351 502 l 364 502 q 417 502 448 465 q 479 427 479 363 l 479 355 l 479 348 q 479 291 453 222 q 428 152 388 103 q 304 -1 207 -1 l 200 -1 q 147 -1 116 36 q 84 74 84 138 l 84 153 q 85 209 109 276 q 160 413 260 474 q 308 502 351 502 z"},"N":{"x_min":0,"x_max":682,"ha":682,"o":"m 532 14 q 496 14 477 46 q 458 78 347 326 q 236 575 225 575 q 224 575 175 321 q 126 66 121 49 q 115 32 102 19 q 89 6 58 6 q 46 6 46 31 q 46 57 172 649 q 180 686 198 686 q 227 686 245 673 q 263 661 278 632 q 293 603 398 369 q 503 135 513 135 q 515 135 561 377 q 607 620 614 646 q 622 673 636 683 q 650 694 683 694 l 690 686 q 690 676 679 639 q 668 601 646 481 q 623 360 614 315 q 605 269 602 249 l 590 187 q 582 146 576 116 q 570 85 566 65 l 562 45 q 555 14 532 14 z"},"+":{"x_min":0,"x_max":596,"ha":596,"o":"m 371 341 q 372 341 435 350 q 498 359 526 359 q 534 359 534 344 q 534 306 518 298 q 510 294 431 285 q 352 276 346 272 q 341 269 322 185 q 304 101 301 95 q 293 78 257 78 l 250 78 q 243 78 243 86 l 276 257 q 276 265 267 265 q 258 265 193 256 q 128 247 107 247 q 99 247 99 262 q 99 301 115 309 q 123 312 203 321 q 282 330 287 333 q 292 337 311 423 q 331 509 332 511 q 340 528 376 528 l 383 528 q 391 528 391 520 l 357 350 q 357 341 371 341 z"},"G":{"x_min":0,"x_max":682,"ha":682,"o":"m 216 26 q 75 95 75 285 q 75 362 104 441 q 133 520 186 581 q 289 699 439 699 q 509 699 586 670 q 663 640 663 610 q 663 599 651 587 q 639 576 625 576 q 611 576 589 590 q 510 639 425 639 q 373 639 321 610 q 269 582 228 529 q 146 425 146 267 q 146 216 164 175 q 214 61 347 61 q 417 61 468 102 q 494 123 510 156 q 527 189 527 211 q 527 233 492 248 q 441 269 441 292 q 441 318 472 330 q 518 347 554 347 q 590 347 603 339 q 615 331 615 307 q 615 283 575 129 q 563 82 550 71 q 537 60 523 57 q 508 54 447 29 q 385 3 324 3 q 263 3 216 26 z"},"q":{"x_min":0,"x_max":548,"ha":548,"o":"m 393 366 l 393 385 q 393 413 378 428 q 363 443 335 443 l 331 443 q 273 443 219 364 q 195 330 177 273 q 159 216 159 173 l 159 146 q 159 111 176 88 q 192 64 215 64 l 227 64 q 227 64 228 64 q 247 64 277 85 q 339 126 374 254 q 393 324 393 366 z m 488 482 l 488 476 q 488 471 457 341 q 394 76 384 -91 q 382 -142 380 -151 q 375 -172 354 -172 q 329 -172 329 -148 q 329 -140 345 -70 q 361 0 361 19 q 361 37 358 37 q 355 37 343 27 l 310 0 q 272 -26 240 -26 q 209 -26 180 -8 q 98 43 98 165 l 98 177 q 98 179 98 180 q 98 237 116 296 q 153 419 240 480 q 278 507 311 507 q 345 507 392 484 q 439 461 442 461 q 445 461 451 471 q 457 480 462 487 q 467 493 475 493 q 488 493 488 482 z"},"d":{"x_min":0,"x_max":549,"ha":549,"o":"m 394 377 q 394 407 377 421 q 360 435 339 435 l 327 435 q 301 435 271 413 q 241 392 215 349 q 189 307 175 252 q 160 198 160 167 l 160 140 q 160 102 176 78 q 192 55 216 55 l 229 55 q 254 55 282 76 q 311 98 333 136 q 355 174 374 243 q 393 312 393 348 l 394 358 z m 524 712 l 533 712 q 559 712 559 688 q 559 639 525 489 q 492 339 407 80 q 393 36 357 36 q 343 36 339 46 q 332 64 329 64 q 327 64 303 42 q 248 -11 196 -11 q 143 -11 116 28 q 89 66 89 136 l 89 148 q 89 218 108 262 q 171 410 267 456 q 306 474 364 474 l 421 472 q 447 472 452 482 q 454 486 474 581 l 479 604 q 481 615 486 638 l 491 661 l 493 672 q 495 687 496 690 q 503 712 524 712 z"},"1":{"x_min":0,"x_max":521,"ha":521,"o":"m 225 571 q 202 571 202 586 q 202 608 228 623 q 319 674 351 674 q 384 674 384 645 l 384 636 l 383 627 q 383 565 353 401 q 322 237 322 212 q 322 188 338 161 q 354 134 354 106 q 354 78 330 54 q 275 0 242 0 l 234 0 l 225 0 q 204 0 196 7 q 163 35 163 71 q 163 106 200 142 q 237 177 249 215 q 253 230 277 356 q 301 481 301 517 q 301 553 294 562 q 288 570 254 570 l 239 571 z"},"5":{"x_min":0,"x_max":550,"ha":550,"o":"m 232 -9 q 179 -9 132 12 q 40 51 40 69 l 40 79 q 40 107 82 107 q 88 107 112 92 q 135 77 142 74 q 183 52 224 52 q 308 52 361 106 q 415 161 415 230 q 415 299 377 334 q 339 369 277 369 q 258 369 221 363 q 184 358 174 358 q 140 358 140 400 q 140 417 186 578 q 204 645 222 661 q 246 683 385 683 q 420 683 433 684 l 462 687 q 487 689 491 689 l 504 689 q 531 689 531 680 q 531 644 501 628 q 488 622 386 622 q 285 622 264 599 q 251 584 232 518 q 213 451 213 439 q 213 424 242 424 l 256 424 l 287 427 q 376 427 430 379 q 484 331 484 241 q 484 193 465 147 q 426 53 332 12 q 285 -9 232 -9 z"}}}
